<svg width="96" height="96" viewBox="0 0 96 96" fill="none" xmlns="http://www.w3.org/2000/svg">
<path d="M8 88V16C8 13.8 8.78333 11.9167 10.35 10.35C11.9167 8.78333 13.8 8 16 8H80C82.2 8 84.0833 8.78333 85.65 10.35C87.2167 11.9167 88 13.8 88 16V64C88 66.2 87.2167 68.0833 85.65 69.65C84.0833 71.2167 82.2 72 80 72H24L8 88Z" fill="#FEF7FF"/>
<path d="M48.9346 29.288C51.2173 29.288 53.0413 29.8853 54.4066 31.08C55.7933 32.2747 56.4866 33.96 56.4866 36.136C56.4866 38.1413 55.8253 39.7093 54.5026 40.84C53.2013 41.9493 51.4733 42.5147 49.3186 42.536L49.1586 44.936H44.3586L44.1986 38.984H46.1186C47.7613 38.984 49.0093 38.7813 49.8626 38.376C50.7373 37.9707 51.1746 37.2347 51.1746 36.168C51.1746 35.4213 50.972 34.8347 50.5666 34.408C50.1613 33.9813 49.596 33.768 48.8706 33.768C48.1026 33.768 47.5053 33.992 47.0786 34.44C46.652 34.8667 46.4386 35.4533 46.4386 36.2H41.2866C41.244 34.8987 41.5106 33.7253 42.0866 32.68C42.684 31.6347 43.5586 30.8133 44.7106 30.216C45.884 29.5973 47.292 29.288 48.9346 29.288ZM46.8226 53.256C45.8626 53.256 45.0733 52.9787 44.4546 52.424C43.8573 51.848 43.5586 51.144 43.5586 50.312C43.5586 49.4587 43.8573 48.744 44.4546 48.168C45.0733 47.592 45.8626 47.304 46.8226 47.304C47.7613 47.304 48.5293 47.592 49.1266 48.168C49.7453 48.744 50.0546 49.4587 50.0546 50.312C50.0546 51.144 49.7453 51.848 49.1266 52.424C48.5293 52.9787 47.7613 53.256 46.8226 53.256Z" fill="#403D39"/>
</svg>
